Coordinates
version=1
nRows=8
nColumns=63
inDegrees=yes

Units are S.I. units (second, meters, Newtons, ...)
If the header above contains a line with 'inDegrees', this indicates whether rotational values are in degrees (yes) or radians (no).

endheader
time	pelvis_tilt	pelvis_list	pelvis_rotation	pelvis_tx	pelvis_ty	pelvis_tz	hip_flexion_r	hip_adduction_r	hip_rotation_r	knee_angle_r	knee_angle_r_beta	ankle_angle_r	subtalar_angle_r	mtp_angle_r	hip_flexion_l	hip_adduction_l	hip_rotation_l	knee_angle_l	knee_angle_l_beta	ankle_angle_l	subtalar_angle_l	mtp_angle_l	L5_S1_Flex_Ext	L5_S1_Lat_Bending	L5_S1_axial_rotation	L4_L5_Flex_Ext	L4_L5_Lat_Bending	L4_L5_axial_rotation	L3_L4_Flex_Ext	L3_L4_Lat_Bending	L3_L4_axial_rotation	L2_L3_Flex_Ext	L2_L3_Lat_Bending	L2_L3_axial_rotation	L1_L2_Flex_Ext	L1_L2_Lat_Bending	L1_L2_axial_rotation	L1_T12_Flex_Ext	L1_T12_Lat_Bending	L1_T12_axial_rotation	Abs_r3	Abs_r2	Abs_r1	Abs_t1	Abs_t2	neck_flexion	neck_bending	neck_rotation	arm_flex_r	arm_add_r	arm_rot_r	elbow_flex_r	pro_sup_r	wrist_flex_r	wrist_dev_r	arm_flex_l	arm_add_l	arm_rot_l	elbow_flex_l	pro_sup_l	wrist_flex_l	wrist_dev_l
      2.36666667	     -4.20242062	     13.32778304	    102.17359747	      0.18219173	      0.67180772	      0.81160260	    -16.51938639	     -1.04774939	      5.83110956	      1.18273582	      0.02064263	     29.41956004	     -9.98295225	      0.00000000	    -13.33389977	      2.63649116	     14.69495402	      3.84869687	      0.06717243	     23.52285928	    -10.72458186	      0.00000000	     -1.07831484	     -2.35354923	     -3.23905406	     -2.00253849	     -3.13022048	     -3.44149493	     -1.77156345	     -5.72241961	     -3.44149493	     -1.23240603	     -5.72241961	     -2.83417230	     -1.00132316	     -4.79935760	     -2.63173142	     -0.61614910	     -3.64564776	     -2.42929054	     -7.70229508	    -26.62381965	    -18.01464694	      0.00000000	      0.00000000	      0.89054379	     32.36514247	     -9.25106166	    138.67149706	    -31.17622625	    178.24035400	      0.13555761	      1.29336247	    -69.53131579	    -23.06167738	     10.57183585	    -16.54248879	    164.20699490	      0.81717902	      4.39069573	    -12.66605734	    -11.11239831
      2.38333333	     -4.23757438	     12.95759131	    102.57734122	      0.18259357	      0.67179120	      0.81123522	    -16.13719497	     -0.98527478	      5.47317412	      1.26307908	      0.02204489	     29.40507099	    -10.08382719	      0.00000000	    -12.89661477	      2.61410472	     15.14787003	      3.92500694	      0.06850429	     23.53238487	    -10.94596015	      0.00000000	     -1.04234813	     -2.38629347	     -3.21333477	     -1.93574472	     -3.17377031	     -3.41416820	     -1.71247375	     -5.80203394	     -3.41416820	     -1.19129968	     -5.80203394	     -2.81166793	     -0.96792448	     -4.86612964	     -2.61083450	     -0.59559772	     -3.69636858	     -2.41000108	     -7.44538849	    -26.99422898	    -17.87160401	      0.00000000	      0.00000000	      1.75777054	     33.38323437	    -10.69903343	    139.48545744	    -32.30300887	    178.61319372	      0.14277155	      1.35123555	    -69.51241582	    -22.98211424	     10.70663078	    -16.61092171	    164.18025112	      0.81689059	      3.82577549	    -11.72988455	    -11.14088986
      2.40000000	     -4.23878460	     12.59720693	    102.96506614	      0.18294673	      0.67181796	      0.81090830	    -15.74685508	     -0.90536873	      5.26028470	      1.31460453	      0.02294418	     29.43568506	    -10.15603719	      0.00000000	    -12.51525165	      2.54312848	     15.41974240	      3.84477234	      0.06710394	     23.74314714	    -10.86829851	      0.00000000	     -1.00266634	     -2.41746371	     -3.21900331	     -1.86205167	     -3.21522674	     -3.42019102	     -1.64728054	     -5.87782127	     -3.42019102	     -1.14594737	     -5.87782127	     -2.81662790	     -0.93107597	     -4.92969200	     -2.61544019	     -0.57292355	     -3.74465129	     -2.41425248	     -7.16194543	    -27.34683299	    -17.90313071	      0.00000000	      0.00000000	      2.56385683	     34.63521711	    -11.85452408	    140.12000356	    -33.38109510	    178.65673642	      0.14907788	      1.49248869	    -69.50311813	    -23.00339570	     10.76251382	    -16.66737293	    163.84593631	      0.85268560	      3.44864389	    -11.01021372	    -11.09521958
      2.41666667	     -4.21538466	     12.25573663	    103.31444022	      0.18311958	      0.67177151	      0.81114499	    -15.28478967	     -0.83121000	      5.03777339	      1.41962423	      0.02477712	     29.61985004	    -10.10208974	      0.00000000	    -11.96117817	      2.51845628	     15.43472325	      4.05561697	      0.07078387	     24.14874111	    -10.73637374	      0.00000000	     -0.98536494	     -2.44241991	     -3.20995351	     -1.82992123	     -3.24841848	     -3.41057560	     -1.61885606	     -5.93849976	     -3.41057560	     -1.12617359	     -5.93849976	     -2.80870932	     -0.91500989	     -4.98058268	     -2.60808722	     -0.56303753	     -3.78330844	     -2.40746513	     -7.03836324	    -27.62914248	    -17.85279842	      0.00000000	      0.00000000	      3.71568078	     35.48693704	    -13.70902643	    141.01488934	    -34.57750152	    179.05721193	      0.15467708	      1.61757934	    -69.49413049	    -23.12248487	     11.02061992	    -16.68687181	    163.19744613	      0.90330838	      3.03361462	     -9.85869747	    -11.28079381
      2.43333333	     -4.21452735	     11.81342632	    103.62678587	      0.18347892	      0.67183216	      0.81101685	    -14.74933300	     -0.80849711	      4.96866260	      1.45423307	      0.02538116	     29.80710917	    -10.05044254	      0.00000000	    -11.47720151	      2.49497632	     15.47750783	      3.93054045	      0.06860087	     24.37170381	    -10.48031683	      0.00000000	     -0.93932662	     -2.47328571	     -3.20391822	     -1.74442347	     -3.28947000	     -3.40416311	     -1.54321971	     -6.01354689	     -3.40416311	     -1.07355640	     -6.01354689	     -2.80342844	     -0.87225870	     -5.04352423	     -2.60318355	     -0.53673123	     -3.83111957	     -2.40293866	     -6.70951613	    -27.97830266	    -17.81923196	      0.00000000	      0.00000000	      4.57703096	     36.70159631	    -15.03303004	    141.70014208	    -35.60725944	    179.12381597	      0.16052936	      1.81580638	    -69.46002744	    -23.17280224	     11.17928918	    -16.71259346	    162.76596194	      0.98978474	      2.77893657	     -9.26603881	    -11.32109002
      2.45000000	     -4.15891105	     11.33661422	    103.72195099	      0.18400736	      0.67182003	      0.81152374	    -14.00993999	     -0.81603193	      4.71493851	      1.65542391	      0.02889260	     30.20057463	     -9.47344758	      0.00000000	    -10.71811103	      2.50902289	     14.35612706	      4.20481755	      0.07338791	     24.79668021	     -9.18635911	      0.00000000	     -0.91304249	     -2.49736703	     -3.11953483	     -1.69561121	     -3.32149815	     -3.31450576	     -1.50003751	     -6.07209820	     -3.31450576	     -1.04351627	     -6.07209820	     -2.72959298	     -0.84785126	     -5.09263085	     -2.53462205	     -0.52171248	     -3.86842153	     -2.33965112	     -6.52177122	    -28.25071531	    -17.34991688	      0.00000000	      0.00000000	      5.98929455	     37.29303343	    -17.53270312	    142.92445057	    -36.81106438	    180.51342024	      0.16826297	      1.90039418	    -69.39139690	    -23.17343834	     11.66808546	    -16.68120076	    162.00470897	      1.05075837	      2.76897204	     -8.37904949	    -11.51946245
      2.46666667	     -4.21761566	     10.72977078	    103.87359756	      0.18465675	      0.67195858	      0.81211900	    -13.16232827	     -0.96266245	      4.35189797	      1.86211458	      0.03250003	     30.54970723	     -8.83749324	      0.00000000	     -9.85658322	      2.62490702	     12.88787510	      4.45574403	      0.07776740	     25.11895333	     -7.18040483	      0.00000000	     -0.86184970	     -2.53791112	     -3.06016306	     -1.60054107	     -3.37542179	     -3.25142325	     -1.41593287	     -6.17067710	     -3.25142325	     -0.98500802	     -6.17067710	     -2.67764268	     -0.80031363	     -5.17530836	     -2.48638249	     -0.49246092	     -3.93122433	     -2.29512230	     -6.15610619	    -28.70935820	    -17.01970890	      0.00000000	      0.00000000	      7.05663765	     38.03637060	    -19.42930100	    143.92789939	    -37.75331585	    181.67482594	      0.17932482	      2.02294417	    -69.23455243	    -23.11456524	     12.10984157	    -16.74227274	    161.82697945	      1.10007634	      2.63404631	     -7.87537965	    -11.68558695
      2.48333333	     -4.40085766	     10.06909171	    104.12513072	      0.18524044	      0.67222278	      0.81269281	    -12.35043843	     -1.22389425	      4.24685903	      2.02195696	      0.03528981	     30.65659731	     -8.83954797	      0.00000000	     -9.06322853	      2.89471101	     12.75022074	      4.55242082	      0.07945473	     24.70558030	     -6.86251137	      0.00000000	     -0.79358409	     -2.59318456	     -3.04902953	     -1.47376502	     -3.44893547	     -3.23959388	     -1.30377931	     -6.30506894	     -3.23959388	     -0.90698726	     -6.30506894	     -2.66790084	     -0.73692219	     -5.28802196	     -2.47733649	     -0.45345395	     -4.01684288	     -2.28677215	     -5.66849182	    -29.33462239	    -16.95778754	      0.00000000	      0.00000000	      7.71606267	     38.78843159	    -20.64695874	    144.59440328	    -38.37451575	    181.87310114	      0.19607218	      2.25888431	    -68.78487840	    -23.10361040	     12.42559948	    -16.90641766	    161.61379213	      1.15280009	      2.44181357	     -7.49043157	    -11.97720084
